# xmcd
#
# Track frame offsets:
#	150
#	11105
#	22980
#	32525
#	45025
#	61525
#	72525
#	86077
#	96505
#	109012
#	120770
#	133615
#	145585
#	155935
#	167120
#	179587
#	189940
#	202822
#	214125
#	224402
#
# Disc length: 3126
#
# Revision: 3
# Processed by: cddbd v1.5.1PL0 Copyright (c) Steve Scherf et al.
# Submitted via: CDex 1.51
# Normalized: r2:TDELIM( - )
#
DISCID=110c3414
DTITLE=Contry Classic - Vol 2
DYEAR=1994
DGENRE=Country
TTITLE0=PATSY CLINE - stop the world(and let me off)
TTITLE1=FARON YOUNG - i heard the jukebox playing
TTITLE2=JOHNNY CASH - rock island line
TTITLE3=LESTER FLATT and EARL SCRUGGS - doin' my time
TTITLE4=ROGER MILLER - honey
TTITLE5=JOHNNY PAYCHECK - heartbreake, tennessee
TTITLE6=TILLMAN FRANK SINGERS - your cheatin' heart
TTITLE7=JERRY SMITH - misty blues
TTITLE8=FERLIN HUSKY - the letter you promised to write
TTITLE9=JOHNNY CASH - you're the nearest thing to heaven
TTITLE10=JERRY WALLACE - shutters and boards
TTITLE11=CONWAY TWITTY - crazy dreams
TTITLE12=GLEN CAMPBELL - walk right in
TTITLE13=JEANNIE C. RILEY - box of memories
TTITLE14=CHARLIE RICH - my heart cries for you
TTITLE15=JOHNNY CASH - train of love
TTITLE16=GEORGES JONES - i love you because
TTITLE17=DAVID HOUSTON - miss brown
TTITLE18=JAN HOWARD - i wish i could fall in love again
TTITLE19=DAVE DUDLEY - oh lonesome me
EXTD=YEAR: 1994
EXTT0=
EXTT1=
EXTT2=
EXTT3=
EXTT4=
EXTT5=
EXTT6=
EXTT7=
EXTT8=
EXTT9=
EXTT10=
EXTT11=
EXTT12=
EXTT13=
EXTT14=
EXTT15=
EXTT16=
EXTT17=
EXTT18=
EXTT19=
PLAYORDER=
